{"title":"Godzilla vs Biollante (1989)","uid":5618025,"size":1929923152,"categoryP":"video","categoryS":"movies","magnet":"?xt=urn:btih:e4c894b19d8de152c981e4801e96313666cf1289&amp;dn=Godzilla+vs+Biollante+%281989%29&amp;tr=udp%3A%2F%2Ftracker.openbittorrent.com%3A80&amp;tr=udp%3A%2F%2Fopen.demonii.com%3A1337&amp;tr=udp%3A%2F%2Ftracker.coppersurfer.tk%3A6969&amp;tr=udp%3A%2F%2Fexodus.desync.com%3A6969","seeders":2,"leechers":1,"uploader":"Beebe85","files":-1,"time":1276143567,"description":"Godzilla vs Biollante (1989) DVDRip  Original Japanese version\n &lt;a href=&quot;\nhttp://www.imdb.com/title/tt0097444/&quot; rel=&quot;nofollow&quot; target=&quot;_NEW&quot;&gt;\nhttp://www.imdb.com/title/tt0097444/&lt;/a&gt;\n\n\n\nGeneral\nComplete name                    : Godzilla vs Biollante (1989)DVD_VOLUME.Title1.avi\nFormat                           : AVI\nFormat/Info                      : Audio Video Interleave\nFile size                        : 1.80 GiB\nDuration                         : 1h 44mn\nOverall bit rate                 : 2 460 Kbps\nMovie name                       : DVD_VOLUME.Title1.DVDRip\nWriting application              : Lavf52.33.0\nOriginal source form/Name        : DVD_VOLUME\n\nVideo\nID                               : 0\nFormat                           : MPEG-4 Visual\nFormat profile                   : Simple@L3\nFormat settings, BVOP            : No\nFormat settings, QPel            : No\nFormat settings, GMC             : No warppoints\nFormat settings, Matrix          : Default (H.263)\nCodec ID                         : XVID\nCodec ID/Hint                    : XviD\nDuration                         : 1h 44mn\nBit rate                         : 2000 Kbps\nWidth                            : 720 pixels\nHeight                           : 406 pixels\nDisplay aspect ratio             : 16:9\nFrame rate                       : 29.970 fps\nResolution                       : 24 bits\nColorimetry                      : 4:2:0\nScan type                        : Progressive\nBits/(Pixel*Frame)               : 0.228\nStream size                      : 1.46 GiB (81%)\nWriting library                  : XviD 1.2.1 (UTC 2008-12-04)\n\nAudio\nID                               : 1\nFormat                           : AC-3\nFormat/Info                      : Audio Coding 3\nCodec ID                         : 2000\nDuration                         : 1h 44mn\nBit rate mode                    : Constant\nBit rate                         : 448 Kbps\nChannel(s)                       : 6 channels\nChannel positions                : Front: L C R, Surround: L R, LFE\nSampling rate                    : 48.0 KHz\nStream size                      : 335 MiB (18%)\nAlignment                        : Aligned on interleaves\nInterleave, duration             : 32 ms (0.96 video frame)\n\n","torrent":{"xt":"urn:btih:e4c894b19d8de152c981e4801e96313666cf1289","amp;dn":"Godzilla+vs+Biollante+%281989%29","amp;tr":["udp%3A%2F%2Ftracker.openbittorrent.com%3A80","udp%3A%2F%2Fopen.demonii.com%3A1337","udp%3A%2F%2Ftracker.coppersurfer.tk%3A6969","udp%3A%2F%2Fexodus.desync.com%3A6969"],"infoHash":"e4c894b19d8de152c981e4801e96313666cf1289","infoHashBuffer":{"type":"Buffer","data":[228,200,148,177,157,141,225,82,201,129,228,128,30,150,49,54,102,207,18,137]},"announce":[],"urlList":[]}}